<svg id="Layer_1" data-name="Layer 1" xmlns="http://www.w3.org/2000/svg" viewBox="0 0 319.14 297.8"><defs><style>.cls-1{fill:#083991;}.cls-2{fill:#008edd;}.cls-3{fill:#5a5b5e;}</style></defs><title>LOGO</title><path class="cls-1" d="M79.19,57.66,48,13.7H185V192.1s-7,74.55-85.38,74.55c0,0-77.73,3.19-86-86h44.6s1.27,40.78,41.1,42.05c0,0,31.54,2.55,43-33.77V57.66Z" transform="translate(-13.16 -13.69)"/><polygon class="cls-2" points="275.8 0 275.8 83.44 184.8 83.44 216.02 123.46 275.8 123.46 275.8 252.97 319.14 252.97 319.14 0 275.8 0"/><path class="cls-3" d="M14.92,302.16v.65c0,2.45.54,7.15,7,7.15,4.67,0,6.81-2.49,6.81-7.15V283.57h1.76v19.09c0,6-3.29,8.83-8.57,8.83-4.48,0-8.76-1.91-8.76-8.68v-.65Z" transform="translate(-13.16 -13.69)"/><path class="cls-3" d="M45.48,283.57h2L60,310.88H58l-4-8.8H38.94l-4,8.8h-2Zm-5.85,17H53.32l-6.85-15Z" transform="translate(-13.16 -13.69)"/><path class="cls-3" d="M58.1,283.57h2l11.13,25.09,11.13-25.09h2L72.21,310.88h-2Z" transform="translate(-13.16 -13.69)"/><path class="cls-3" d="M86.86,283.57h1.76v27.31H86.86Z" transform="translate(-13.16 -13.69)"/><path class="cls-3" d="M93.79,283.57h21.57v1.53H95.54V296h19v1.53h-19v11.86h20v1.53H93.79Z" transform="translate(-13.16 -13.69)"/><path class="cls-3" d="M119.14,283.57h14c5.24,0,9.22,1.49,9.22,7.23a6.84,6.84,0,0,1-5.59,6.77v.08a5.47,5.47,0,0,1,5.13,5.66c.07,5,.23,6.58.76,7.57h-1.76c-.5-.46-.65-2.18-.76-6.35-.11-4.74-1.64-6.08-7-6.08H120.9v12.43h-1.76Zm1.76,13.35H132.8c1.72,0,7.77,0,7.77-6.23,0-4.44-3.44-5.58-7.31-5.58H120.9Z" transform="translate(-13.16 -13.69)"/><path class="cls-3" d="M155.71,283.57h1.76v12.16h20.92V283.57h1.76v27.31h-1.76V297.27H157.47v13.61h-1.76Z" transform="translate(-13.16 -13.69)"/><path class="cls-3" d="M185.31,283.57h1.76v27.31h-1.76Z" transform="translate(-13.16 -13.69)"/><path class="cls-3" d="M192.24,283.57H205c6.46,0,12.24,3.1,12.24,13.65,0,8-4.05,13.65-12.54,13.65H192.24ZM194,309.35h11.05c6,0,10.44-3.71,10.44-12.12,0-8.64-4.4-12.12-10.86-12.12H194Z" transform="translate(-13.16 -13.69)"/><path class="cls-3" d="M231.67,283.57h2l12.54,27.31h-2l-4-8.8H225.13l-4,8.8h-2Zm-5.85,17h13.69l-6.85-15Z" transform="translate(-13.16 -13.69)"/><path class="cls-3" d="M248.66,283.57h1.76v25.78h17.9v1.53H248.66Z" transform="translate(-13.16 -13.69)"/><path class="cls-3" d="M285.72,297.27h12.74v13.61h-1.53v-6.73h-.08c-2.07,4.9-6.69,7.34-11.93,7.34-8.3,0-14.53-5.24-14.53-14.26,0-6.62,4.51-14.27,14.53-14.27,6.69,0,11.63,3.29,13,9.18h-1.76c-1.15-5-5.74-7.65-11.21-7.65a12.39,12.39,0,0,0-12.77,12.74c0,6.85,4.4,12.74,12.77,12.74,6.88,0,11.36-4.25,11.78-11.17h-11Z" transform="translate(-13.16 -13.69)"/><path class="cls-3" d="M316.93,283c11.09,0,14.5,8.91,14.5,14.27s-3.4,14.26-14.5,14.26-14.5-8.91-14.5-14.26S305.84,283,316.93,283Zm0,27c8.22,0,12.74-6.2,12.74-12.74s-4.51-12.74-12.74-12.74-12.74,6.2-12.74,12.74S308.71,310,316.93,310Z" transform="translate(-13.16 -13.69)"/></svg>